# Tiled2Unity generated file. Do not modify by hand.
# Wavefront file for 'startmap1_mesh_0003.obj'

# Vertices (Count = 12)
v -1200 -48 0
v -1248 -48 0
v -1248 0 0
v -1200 0 0
v -1200 -96 0
v -1248 -96 0
v -1248 -48 0
v -1200 -48 0
v -1200 -144 0
v -1248 -144 0
v -1248 -96 0
v -1200 -96 0

# Texture cooridinates (Count = 8)
vt 0 0.8125
vt 0.0625 0.8125
vt 0.0625 0.875
vt 0 0.875
vt 0 0.75
vt 0.0625 0.75
vt 0 0.6875
vt 0.0625 0.6875

# Normal
vn 0 0 -1

# Mesh description
g startmap1_mesh_0003

# Faces
f 1/1/1 2/2/1 3/3/1 4/4/1
f 5/5/1 6/6/1 7/2/1 8/1/1
f 9/7/1 10/8/1 11/6/1 12/5/1

