# Tiled2Unity generated file. Do not modify by hand.
# Wavefront file for 'startmap1_mesh_0002.obj'

# Vertices (Count = 192)
v -672 -528 0
v -720 -528 0
v -720 -480 0
v -672 -480 0
v -720 -528 0
v -768 -528 0
v -768 -480 0
v -720 -480 0
v -768 -528 0
v -816 -528 0
v -816 -480 0
v -768 -480 0
v -816 -528 0
v -864 -528 0
v -864 -480 0
v -816 -480 0
v -864 -528 0
v -912 -528 0
v -912 -480 0
v -864 -480 0
v -912 -528 0
v -960 -528 0
v -960 -480 0
v -912 -480 0
v -960 -528 0
v -1008 -528 0
v -1008 -480 0
v -960 -480 0
v -1008 -528 0
v -1056 -528 0
v -1056 -480 0
v -1008 -480 0
v -672 -576 0
v -720 -576 0
v -720 -528 0
v -672 -528 0
v -720 -576 0
v -768 -576 0
v -768 -528 0
v -720 -528 0
v -768 -576 0
v -816 -576 0
v -816 -528 0
v -768 -528 0
v -816 -576 0
v -864 -576 0
v -864 -528 0
v -816 -528 0
v -864 -576 0
v -912 -576 0
v -912 -528 0
v -864 -528 0
v -912 -576 0
v -960 -576 0
v -960 -528 0
v -912 -528 0
v -960 -576 0
v -1008 -576 0
v -1008 -528 0
v -960 -528 0
v -1008 -576 0
v -1056 -576 0
v -1056 -528 0
v -1008 -528 0
v -672 -624 0
v -720 -624 0
v -720 -576 0
v -672 -576 0
v -720 -624 0
v -768 -624 0
v -768 -576 0
v -720 -576 0
v -768 -624 0
v -816 -624 0
v -816 -576 0
v -768 -576 0
v -816 -624 0
v -864 -624 0
v -864 -576 0
v -816 -576 0
v -864 -624 0
v -912 -624 0
v -912 -576 0
v -864 -576 0
v -912 -624 0
v -960 -624 0
v -960 -576 0
v -912 -576 0
v -960 -624 0
v -1008 -624 0
v -1008 -576 0
v -960 -576 0
v -1008 -624 0
v -1056 -624 0
v -1056 -576 0
v -1008 -576 0
v -672 -672 0
v -720 -672 0
v -720 -624 0
v -672 -624 0
v -720 -672 0
v -768 -672 0
v -768 -624 0
v -720 -624 0
v -768 -672 0
v -816 -672 0
v -816 -624 0
v -768 -624 0
v -816 -672 0
v -864 -672 0
v -864 -624 0
v -816 -624 0
v -864 -672 0
v -912 -672 0
v -912 -624 0
v -864 -624 0
v -912 -672 0
v -960 -672 0
v -960 -624 0
v -912 -624 0
v -960 -672 0
v -1008 -672 0
v -1008 -624 0
v -960 -624 0
v -1008 -672 0
v -1056 -672 0
v -1056 -624 0
v -1008 -624 0
v -672 -720 0
v -720 -720 0
v -720 -672 0
v -672 -672 0
v -720 -720 0
v -768 -720 0
v -768 -672 0
v -720 -672 0
v -768 -720 0
v -816 -720 0
v -816 -672 0
v -768 -672 0
v -816 -720 0
v -864 -720 0
v -864 -672 0
v -816 -672 0
v -864 -720 0
v -912 -720 0
v -912 -672 0
v -864 -672 0
v -912 -720 0
v -960 -720 0
v -960 -672 0
v -912 -672 0
v -960 -720 0
v -1008 -720 0
v -1008 -672 0
v -960 -672 0
v -1008 -720 0
v -1056 -720 0
v -1056 -672 0
v -1008 -672 0
v -672 -768 0
v -720 -768 0
v -720 -720 0
v -672 -720 0
v -720 -768 0
v -768 -768 0
v -768 -720 0
v -720 -720 0
v -768 -768 0
v -816 -768 0
v -816 -720 0
v -768 -720 0
v -816 -768 0
v -864 -768 0
v -864 -720 0
v -816 -720 0
v -864 -768 0
v -912 -768 0
v -912 -720 0
v -864 -720 0
v -912 -768 0
v -960 -768 0
v -960 -720 0
v -912 -720 0
v -960 -768 0
v -1008 -768 0
v -1008 -720 0
v -960 -720 0
v -1008 -768 0
v -1056 -768 0
v -1056 -720 0
v -1008 -720 0

# Texture cooridinates (Count = 9)
vt 0.25 0.08333331
vt 0.3125 0.08333331
vt 0.3125 0.1666667
vt 0.25 0.1666667
vt 0.375 0.08333331
vt 0.375 0.1666667
vt 0.25 0
vt 0.3125 0
vt 0.375 0

# Normal
vn 0 0 -1

# Mesh description
g startmap1_mesh_0002

# Faces
f 1/1/1 2/2/1 3/3/1 4/4/1
f 5/2/1 6/5/1 7/6/1 8/3/1
f 9/1/1 10/2/1 11/3/1 12/4/1
f 13/2/1 14/5/1 15/6/1 16/3/1
f 17/1/1 18/2/1 19/3/1 20/4/1
f 21/2/1 22/5/1 23/6/1 24/3/1
f 25/1/1 26/2/1 27/3/1 28/4/1
f 29/2/1 30/5/1 31/6/1 32/3/1
f 33/7/1 34/8/1 35/2/1 36/1/1
f 37/8/1 38/9/1 39/5/1 40/2/1
f 41/7/1 42/8/1 43/2/1 44/1/1
f 45/8/1 46/9/1 47/5/1 48/2/1
f 49/7/1 50/8/1 51/2/1 52/1/1
f 53/8/1 54/9/1 55/5/1 56/2/1
f 57/7/1 58/8/1 59/2/1 60/1/1
f 61/8/1 62/9/1 63/5/1 64/2/1
f 65/1/1 66/2/1 67/3/1 68/4/1
f 69/2/1 70/5/1 71/6/1 72/3/1
f 73/1/1 74/2/1 75/3/1 76/4/1
f 77/2/1 78/5/1 79/6/1 80/3/1
f 81/1/1 82/2/1 83/3/1 84/4/1
f 85/2/1 86/5/1 87/6/1 88/3/1
f 89/1/1 90/2/1 91/3/1 92/4/1
f 93/2/1 94/5/1 95/6/1 96/3/1
f 97/7/1 98/8/1 99/2/1 100/1/1
f 101/8/1 102/9/1 103/5/1 104/2/1
f 105/7/1 106/8/1 107/2/1 108/1/1
f 109/8/1 110/9/1 111/5/1 112/2/1
f 113/7/1 114/8/1 115/2/1 116/1/1
f 117/8/1 118/9/1 119/5/1 120/2/1
f 121/7/1 122/8/1 123/2/1 124/1/1
f 125/8/1 126/9/1 127/5/1 128/2/1
f 129/1/1 130/2/1 131/3/1 132/4/1
f 133/2/1 134/5/1 135/6/1 136/3/1
f 137/1/1 138/2/1 139/3/1 140/4/1
f 141/2/1 142/5/1 143/6/1 144/3/1
f 145/1/1 146/2/1 147/3/1 148/4/1
f 149/2/1 150/5/1 151/6/1 152/3/1
f 153/1/1 154/2/1 155/3/1 156/4/1
f 157/2/1 158/5/1 159/6/1 160/3/1
f 161/7/1 162/8/1 163/2/1 164/1/1
f 165/8/1 166/9/1 167/5/1 168/2/1
f 169/7/1 170/8/1 171/2/1 172/1/1
f 173/8/1 174/9/1 175/5/1 176/2/1
f 177/7/1 178/8/1 179/2/1 180/1/1
f 181/8/1 182/9/1 183/5/1 184/2/1
f 185/7/1 186/8/1 187/2/1 188/1/1
f 189/8/1 190/9/1 191/5/1 192/2/1

