# Tiled2Unity generated file. Do not modify by hand.
# Wavefront file for 'test0520_mesh_0001.obj'

# Vertices (Count = 884)
v 0 -48 0
v -48 -48 0
v -48 0 0
v 0 0 0
v -48 -48 0
v -96 -48 0
v -96 0 0
v -48 0 0
v -96 -48 0
v -144 -48 0
v -144 0 0
v -96 0 0
v -144 -48 0
v -192 -48 0
v -192 0 0
v -144 0 0
v -192 -48 0
v -240 -48 0
v -240 0 0
v -192 0 0
v -240 -48 0
v -288 -48 0
v -288 0 0
v -240 0 0
v -288 -48 0
v -336 -48 0
v -336 0 0
v -288 0 0
v -336 -48 0
v -384 -48 0
v -384 0 0
v -336 0 0
v -384 -48 0
v -432 -48 0
v -432 0 0
v -384 0 0
v -432 -48 0
v -480 -48 0
v -480 0 0
v -432 0 0
v -480 -48 0
v -528 -48 0
v -528 0 0
v -480 0 0
v -528 -48 0
v -576 -48 0
v -576 0 0
v -528 0 0
v -576 -48 0
v -624 -48 0
v -624 0 0
v -576 0 0
v -624 -48 0
v -672 -48 0
v -672 0 0
v -624 0 0
v -672 -48 0
v -720 -48 0
v -720 0 0
v -672 0 0
v -720 -48 0
v -768 -48 0
v -768 0 0
v -720 0 0
v -768 -48 0
v -816 -48 0
v -816 0 0
v -768 0 0
v 0 -96 0
v -48 -96 0
v -48 -48 0
v 0 -48 0
v -48 -96 0
v -96 -96 0
v -96 -48 0
v -48 -48 0
v -96 -96 0
v -144 -96 0
v -144 -48 0
v -96 -48 0
v -144 -96 0
v -192 -96 0
v -192 -48 0
v -144 -48 0
v -192 -96 0
v -240 -96 0
v -240 -48 0
v -192 -48 0
v -240 -96 0
v -288 -96 0
v -288 -48 0
v -240 -48 0
v -288 -96 0
v -336 -96 0
v -336 -48 0
v -288 -48 0
v -336 -96 0
v -384 -96 0
v -384 -48 0
v -336 -48 0
v -384 -96 0
v -432 -96 0
v -432 -48 0
v -384 -48 0
v -432 -96 0
v -480 -96 0
v -480 -48 0
v -432 -48 0
v -480 -96 0
v -528 -96 0
v -528 -48 0
v -480 -48 0
v -528 -96 0
v -576 -96 0
v -576 -48 0
v -528 -48 0
v -576 -96 0
v -624 -96 0
v -624 -48 0
v -576 -48 0
v -624 -96 0
v -672 -96 0
v -672 -48 0
v -624 -48 0
v -672 -96 0
v -720 -96 0
v -720 -48 0
v -672 -48 0
v -720 -96 0
v -768 -96 0
v -768 -48 0
v -720 -48 0
v -768 -96 0
v -816 -96 0
v -816 -48 0
v -768 -48 0
v 0 -144 0
v -48 -144 0
v -48 -96 0
v 0 -96 0
v -48 -144 0
v -96 -144 0
v -96 -96 0
v -48 -96 0
v -96 -144 0
v -144 -144 0
v -144 -96 0
v -96 -96 0
v -144 -144 0
v -192 -144 0
v -192 -96 0
v -144 -96 0
v -192 -144 0
v -240 -144 0
v -240 -96 0
v -192 -96 0
v -240 -144 0
v -288 -144 0
v -288 -96 0
v -240 -96 0
v -288 -144 0
v -336 -144 0
v -336 -96 0
v -288 -96 0
v -336 -144 0
v -384 -144 0
v -384 -96 0
v -336 -96 0
v -384 -144 0
v -432 -144 0
v -432 -96 0
v -384 -96 0
v -432 -144 0
v -480 -144 0
v -480 -96 0
v -432 -96 0
v -480 -144 0
v -528 -144 0
v -528 -96 0
v -480 -96 0
v -528 -144 0
v -576 -144 0
v -576 -96 0
v -528 -96 0
v -576 -144 0
v -624 -144 0
v -624 -96 0
v -576 -96 0
v -624 -144 0
v -672 -144 0
v -672 -96 0
v -624 -96 0
v -672 -144 0
v -720 -144 0
v -720 -96 0
v -672 -96 0
v -720 -144 0
v -768 -144 0
v -768 -96 0
v -720 -96 0
v -768 -144 0
v -816 -144 0
v -816 -96 0
v -768 -96 0
v 0 -192 0
v -48 -192 0
v -48 -144 0
v 0 -144 0
v -48 -192 0
v -96 -192 0
v -96 -144 0
v -48 -144 0
v -96 -192 0
v -144 -192 0
v -144 -144 0
v -96 -144 0
v -144 -192 0
v -192 -192 0
v -192 -144 0
v -144 -144 0
v -192 -192 0
v -240 -192 0
v -240 -144 0
v -192 -144 0
v -240 -192 0
v -288 -192 0
v -288 -144 0
v -240 -144 0
v -288 -192 0
v -336 -192 0
v -336 -144 0
v -288 -144 0
v -336 -192 0
v -384 -192 0
v -384 -144 0
v -336 -144 0
v -384 -192 0
v -432 -192 0
v -432 -144 0
v -384 -144 0
v -432 -192 0
v -480 -192 0
v -480 -144 0
v -432 -144 0
v -480 -192 0
v -528 -192 0
v -528 -144 0
v -480 -144 0
v -528 -192 0
v -576 -192 0
v -576 -144 0
v -528 -144 0
v -576 -192 0
v -624 -192 0
v -624 -144 0
v -576 -144 0
v -624 -192 0
v -672 -192 0
v -672 -144 0
v -624 -144 0
v -672 -192 0
v -720 -192 0
v -720 -144 0
v -672 -144 0
v -720 -192 0
v -768 -192 0
v -768 -144 0
v -720 -144 0
v -768 -192 0
v -816 -192 0
v -816 -144 0
v -768 -144 0
v 0 -240 0
v -48 -240 0
v -48 -192 0
v 0 -192 0
v -48 -240 0
v -96 -240 0
v -96 -192 0
v -48 -192 0
v -96 -240 0
v -144 -240 0
v -144 -192 0
v -96 -192 0
v -144 -240 0
v -192 -240 0
v -192 -192 0
v -144 -192 0
v -192 -240 0
v -240 -240 0
v -240 -192 0
v -192 -192 0
v -240 -240 0
v -288 -240 0
v -288 -192 0
v -240 -192 0
v -288 -240 0
v -336 -240 0
v -336 -192 0
v -288 -192 0
v -336 -240 0
v -384 -240 0
v -384 -192 0
v -336 -192 0
v -384 -240 0
v -432 -240 0
v -432 -192 0
v -384 -192 0
v -432 -240 0
v -480 -240 0
v -480 -192 0
v -432 -192 0
v -480 -240 0
v -528 -240 0
v -528 -192 0
v -480 -192 0
v -528 -240 0
v -576 -240 0
v -576 -192 0
v -528 -192 0
v -576 -240 0
v -624 -240 0
v -624 -192 0
v -576 -192 0
v -624 -240 0
v -672 -240 0
v -672 -192 0
v -624 -192 0
v -672 -240 0
v -720 -240 0
v -720 -192 0
v -672 -192 0
v -720 -240 0
v -768 -240 0
v -768 -192 0
v -720 -192 0
v -768 -240 0
v -816 -240 0
v -816 -192 0
v -768 -192 0
v 0 -288 0
v -48 -288 0
v -48 -240 0
v 0 -240 0
v -48 -288 0
v -96 -288 0
v -96 -240 0
v -48 -240 0
v -96 -288 0
v -144 -288 0
v -144 -240 0
v -96 -240 0
v -144 -288 0
v -192 -288 0
v -192 -240 0
v -144 -240 0
v -192 -288 0
v -240 -288 0
v -240 -240 0
v -192 -240 0
v -240 -288 0
v -288 -288 0
v -288 -240 0
v -240 -240 0
v -288 -288 0
v -336 -288 0
v -336 -240 0
v -288 -240 0
v -336 -288 0
v -384 -288 0
v -384 -240 0
v -336 -240 0
v -384 -288 0
v -432 -288 0
v -432 -240 0
v -384 -240 0
v -432 -288 0
v -480 -288 0
v -480 -240 0
v -432 -240 0
v -480 -288 0
v -528 -288 0
v -528 -240 0
v -480 -240 0
v -528 -288 0
v -576 -288 0
v -576 -240 0
v -528 -240 0
v -576 -288 0
v -624 -288 0
v -624 -240 0
v -576 -240 0
v -624 -288 0
v -672 -288 0
v -672 -240 0
v -624 -240 0
v -672 -288 0
v -720 -288 0
v -720 -240 0
v -672 -240 0
v -720 -288 0
v -768 -288 0
v -768 -240 0
v -720 -240 0
v -768 -288 0
v -816 -288 0
v -816 -240 0
v -768 -240 0
v 0 -336 0
v -48 -336 0
v -48 -288 0
v 0 -288 0
v -48 -336 0
v -96 -336 0
v -96 -288 0
v -48 -288 0
v -96 -336 0
v -144 -336 0
v -144 -288 0
v -96 -288 0
v -144 -336 0
v -192 -336 0
v -192 -288 0
v -144 -288 0
v -192 -336 0
v -240 -336 0
v -240 -288 0
v -192 -288 0
v -240 -336 0
v -288 -336 0
v -288 -288 0
v -240 -288 0
v -288 -336 0
v -336 -336 0
v -336 -288 0
v -288 -288 0
v -336 -336 0
v -384 -336 0
v -384 -288 0
v -336 -288 0
v -384 -336 0
v -432 -336 0
v -432 -288 0
v -384 -288 0
v -432 -336 0
v -480 -336 0
v -480 -288 0
v -432 -288 0
v -480 -336 0
v -528 -336 0
v -528 -288 0
v -480 -288 0
v -528 -336 0
v -576 -336 0
v -576 -288 0
v -528 -288 0
v -576 -336 0
v -624 -336 0
v -624 -288 0
v -576 -288 0
v -624 -336 0
v -672 -336 0
v -672 -288 0
v -624 -288 0
v -672 -336 0
v -720 -336 0
v -720 -288 0
v -672 -288 0
v -720 -336 0
v -768 -336 0
v -768 -288 0
v -720 -288 0
v -768 -336 0
v -816 -336 0
v -816 -288 0
v -768 -288 0
v 0 -384 0
v -48 -384 0
v -48 -336 0
v 0 -336 0
v -48 -384 0
v -96 -384 0
v -96 -336 0
v -48 -336 0
v -96 -384 0
v -144 -384 0
v -144 -336 0
v -96 -336 0
v -144 -384 0
v -192 -384 0
v -192 -336 0
v -144 -336 0
v -192 -384 0
v -240 -384 0
v -240 -336 0
v -192 -336 0
v -240 -384 0
v -288 -384 0
v -288 -336 0
v -240 -336 0
v -288 -384 0
v -336 -384 0
v -336 -336 0
v -288 -336 0
v -336 -384 0
v -384 -384 0
v -384 -336 0
v -336 -336 0
v -384 -384 0
v -432 -384 0
v -432 -336 0
v -384 -336 0
v -432 -384 0
v -480 -384 0
v -480 -336 0
v -432 -336 0
v -480 -384 0
v -528 -384 0
v -528 -336 0
v -480 -336 0
v -528 -384 0
v -576 -384 0
v -576 -336 0
v -528 -336 0
v -576 -384 0
v -624 -384 0
v -624 -336 0
v -576 -336 0
v -624 -384 0
v -672 -384 0
v -672 -336 0
v -624 -336 0
v -672 -384 0
v -720 -384 0
v -720 -336 0
v -672 -336 0
v -720 -384 0
v -768 -384 0
v -768 -336 0
v -720 -336 0
v -768 -384 0
v -816 -384 0
v -816 -336 0
v -768 -336 0
v 0 -432 0
v -48 -432 0
v -48 -384 0
v 0 -384 0
v -48 -432 0
v -96 -432 0
v -96 -384 0
v -48 -384 0
v -96 -432 0
v -144 -432 0
v -144 -384 0
v -96 -384 0
v -144 -432 0
v -192 -432 0
v -192 -384 0
v -144 -384 0
v -192 -432 0
v -240 -432 0
v -240 -384 0
v -192 -384 0
v -240 -432 0
v -288 -432 0
v -288 -384 0
v -240 -384 0
v -288 -432 0
v -336 -432 0
v -336 -384 0
v -288 -384 0
v -336 -432 0
v -384 -432 0
v -384 -384 0
v -336 -384 0
v -384 -432 0
v -432 -432 0
v -432 -384 0
v -384 -384 0
v -432 -432 0
v -480 -432 0
v -480 -384 0
v -432 -384 0
v -480 -432 0
v -528 -432 0
v -528 -384 0
v -480 -384 0
v -528 -432 0
v -576 -432 0
v -576 -384 0
v -528 -384 0
v -576 -432 0
v -624 -432 0
v -624 -384 0
v -576 -384 0
v -624 -432 0
v -672 -432 0
v -672 -384 0
v -624 -384 0
v -672 -432 0
v -720 -432 0
v -720 -384 0
v -672 -384 0
v -720 -432 0
v -768 -432 0
v -768 -384 0
v -720 -384 0
v -768 -432 0
v -816 -432 0
v -816 -384 0
v -768 -384 0
v 0 -480 0
v -48 -480 0
v -48 -432 0
v 0 -432 0
v -48 -480 0
v -96 -480 0
v -96 -432 0
v -48 -432 0
v -96 -480 0
v -144 -480 0
v -144 -432 0
v -96 -432 0
v -144 -480 0
v -192 -480 0
v -192 -432 0
v -144 -432 0
v -192 -480 0
v -240 -480 0
v -240 -432 0
v -192 -432 0
v -240 -480 0
v -288 -480 0
v -288 -432 0
v -240 -432 0
v -288 -480 0
v -336 -480 0
v -336 -432 0
v -288 -432 0
v -336 -480 0
v -384 -480 0
v -384 -432 0
v -336 -432 0
v -384 -480 0
v -432 -480 0
v -432 -432 0
v -384 -432 0
v -432 -480 0
v -480 -480 0
v -480 -432 0
v -432 -432 0
v -480 -480 0
v -528 -480 0
v -528 -432 0
v -480 -432 0
v -528 -480 0
v -576 -480 0
v -576 -432 0
v -528 -432 0
v -576 -480 0
v -624 -480 0
v -624 -432 0
v -576 -432 0
v -624 -480 0
v -672 -480 0
v -672 -432 0
v -624 -432 0
v -672 -480 0
v -720 -480 0
v -720 -432 0
v -672 -432 0
v -720 -480 0
v -768 -480 0
v -768 -432 0
v -720 -432 0
v -768 -480 0
v -816 -480 0
v -816 -432 0
v -768 -432 0
v 0 -528 0
v -48 -528 0
v -48 -480 0
v 0 -480 0
v -48 -528 0
v -96 -528 0
v -96 -480 0
v -48 -480 0
v -96 -528 0
v -144 -528 0
v -144 -480 0
v -96 -480 0
v -144 -528 0
v -192 -528 0
v -192 -480 0
v -144 -480 0
v -192 -528 0
v -240 -528 0
v -240 -480 0
v -192 -480 0
v -240 -528 0
v -288 -528 0
v -288 -480 0
v -240 -480 0
v -288 -528 0
v -336 -528 0
v -336 -480 0
v -288 -480 0
v -336 -528 0
v -384 -528 0
v -384 -480 0
v -336 -480 0
v -384 -528 0
v -432 -528 0
v -432 -480 0
v -384 -480 0
v -432 -528 0
v -480 -528 0
v -480 -480 0
v -432 -480 0
v -480 -528 0
v -528 -528 0
v -528 -480 0
v -480 -480 0
v -528 -528 0
v -576 -528 0
v -576 -480 0
v -528 -480 0
v -576 -528 0
v -624 -528 0
v -624 -480 0
v -576 -480 0
v -624 -528 0
v -672 -528 0
v -672 -480 0
v -624 -480 0
v -672 -528 0
v -720 -528 0
v -720 -480 0
v -672 -480 0
v -720 -528 0
v -768 -528 0
v -768 -480 0
v -720 -480 0
v -768 -528 0
v -816 -528 0
v -816 -480 0
v -768 -480 0
v 0 -576 0
v -48 -576 0
v -48 -528 0
v 0 -528 0
v -48 -576 0
v -96 -576 0
v -96 -528 0
v -48 -528 0
v -96 -576 0
v -144 -576 0
v -144 -528 0
v -96 -528 0
v -144 -576 0
v -192 -576 0
v -192 -528 0
v -144 -528 0
v -192 -576 0
v -240 -576 0
v -240 -528 0
v -192 -528 0
v -240 -576 0
v -288 -576 0
v -288 -528 0
v -240 -528 0
v -288 -576 0
v -336 -576 0
v -336 -528 0
v -288 -528 0
v -336 -576 0
v -384 -576 0
v -384 -528 0
v -336 -528 0
v -384 -576 0
v -432 -576 0
v -432 -528 0
v -384 -528 0
v -432 -576 0
v -480 -576 0
v -480 -528 0
v -432 -528 0
v -480 -576 0
v -528 -576 0
v -528 -528 0
v -480 -528 0
v -528 -576 0
v -576 -576 0
v -576 -528 0
v -528 -528 0
v -576 -576 0
v -624 -576 0
v -624 -528 0
v -576 -528 0
v -624 -576 0
v -672 -576 0
v -672 -528 0
v -624 -528 0
v -672 -576 0
v -720 -576 0
v -720 -528 0
v -672 -528 0
v -720 -576 0
v -768 -576 0
v -768 -528 0
v -720 -528 0
v -768 -576 0
v -816 -576 0
v -816 -528 0
v -768 -528 0
v 0 -624 0
v -48 -624 0
v -48 -576 0
v 0 -576 0
v -48 -624 0
v -96 -624 0
v -96 -576 0
v -48 -576 0
v -96 -624 0
v -144 -624 0
v -144 -576 0
v -96 -576 0
v -144 -624 0
v -192 -624 0
v -192 -576 0
v -144 -576 0
v -192 -624 0
v -240 -624 0
v -240 -576 0
v -192 -576 0
v -240 -624 0
v -288 -624 0
v -288 -576 0
v -240 -576 0
v -288 -624 0
v -336 -624 0
v -336 -576 0
v -288 -576 0
v -336 -624 0
v -384 -624 0
v -384 -576 0
v -336 -576 0
v -384 -624 0
v -432 -624 0
v -432 -576 0
v -384 -576 0
v -432 -624 0
v -480 -624 0
v -480 -576 0
v -432 -576 0
v -480 -624 0
v -528 -624 0
v -528 -576 0
v -480 -576 0
v -528 -624 0
v -576 -624 0
v -576 -576 0
v -528 -576 0
v -576 -624 0
v -624 -624 0
v -624 -576 0
v -576 -576 0
v -624 -624 0
v -672 -624 0
v -672 -576 0
v -624 -576 0
v -672 -624 0
v -720 -624 0
v -720 -576 0
v -672 -576 0
v -720 -624 0
v -768 -624 0
v -768 -576 0
v -720 -576 0
v -768 -624 0
v -816 -624 0
v -816 -576 0
v -768 -576 0

# Texture cooridinates (Count = 11)
vt 0.125 0.875
vt 0.25 0.875
vt 0.25 0.9375
vt 0.125 0.9375
vt 0 0.9375
vt 0.125 1
vt 0 1
vt 0.375 0.9375
vt 0.5 0.9375
vt 0.5 1
vt 0.375 1

# Normal
vn 0 0 -1

# Mesh description
g test0520_mesh_0001

# Faces
f 1/1/1 2/2/1 3/3/1 4/4/1
f 5/5/1 6/4/1 7/6/1 8/7/1
f 9/5/1 10/4/1 11/6/1 12/7/1
f 13/5/1 14/4/1 15/6/1 16/7/1
f 17/5/1 18/4/1 19/6/1 20/7/1
f 21/5/1 22/4/1 23/6/1 24/7/1
f 25/8/1 26/9/1 27/10/1 28/11/1
f 29/8/1 30/9/1 31/10/1 32/11/1
f 33/8/1 34/9/1 35/10/1 36/11/1
f 37/8/1 38/9/1 39/10/1 40/11/1
f 41/8/1 42/9/1 43/10/1 44/11/1
f 45/5/1 46/4/1 47/6/1 48/7/1
f 49/5/1 50/4/1 51/6/1 52/7/1
f 53/5/1 54/4/1 55/6/1 56/7/1
f 57/5/1 58/4/1 59/6/1 60/7/1
f 61/5/1 62/4/1 63/6/1 64/7/1
f 65/5/1 66/4/1 67/6/1 68/7/1
f 69/5/1 70/4/1 71/6/1 72/7/1
f 73/5/1 74/4/1 75/6/1 76/7/1
f 77/5/1 78/4/1 79/6/1 80/7/1
f 81/5/1 82/4/1 83/6/1 84/7/1
f 85/5/1 86/4/1 87/6/1 88/7/1
f 89/5/1 90/4/1 91/6/1 92/7/1
f 93/8/1 94/9/1 95/10/1 96/11/1
f 97/8/1 98/9/1 99/10/1 100/11/1
f 101/8/1 102/9/1 103/10/1 104/11/1
f 105/8/1 106/9/1 107/10/1 108/11/1
f 109/8/1 110/9/1 111/10/1 112/11/1
f 113/5/1 114/4/1 115/6/1 116/7/1
f 117/5/1 118/4/1 119/6/1 120/7/1
f 121/5/1 122/4/1 123/6/1 124/7/1
f 125/5/1 126/4/1 127/6/1 128/7/1
f 129/5/1 130/4/1 131/6/1 132/7/1
f 133/5/1 134/4/1 135/6/1 136/7/1
f 137/5/1 138/4/1 139/6/1 140/7/1
f 141/5/1 142/4/1 143/6/1 144/7/1
f 145/5/1 146/4/1 147/6/1 148/7/1
f 149/5/1 150/4/1 151/6/1 152/7/1
f 153/5/1 154/4/1 155/6/1 156/7/1
f 157/5/1 158/4/1 159/6/1 160/7/1
f 161/8/1 162/9/1 163/10/1 164/11/1
f 165/8/1 166/9/1 167/10/1 168/11/1
f 169/8/1 170/9/1 171/10/1 172/11/1
f 173/8/1 174/9/1 175/10/1 176/11/1
f 177/8/1 178/9/1 179/10/1 180/11/1
f 181/5/1 182/4/1 183/6/1 184/7/1
f 185/5/1 186/4/1 187/6/1 188/7/1
f 189/5/1 190/4/1 191/6/1 192/7/1
f 193/5/1 194/4/1 195/6/1 196/7/1
f 197/5/1 198/4/1 199/6/1 200/7/1
f 201/5/1 202/4/1 203/6/1 204/7/1
f 205/5/1 206/4/1 207/6/1 208/7/1
f 209/5/1 210/4/1 211/6/1 212/7/1
f 213/5/1 214/4/1 215/6/1 216/7/1
f 217/5/1 218/4/1 219/6/1 220/7/1
f 221/5/1 222/4/1 223/6/1 224/7/1
f 225/5/1 226/4/1 227/6/1 228/7/1
f 229/8/1 230/9/1 231/10/1 232/11/1
f 233/8/1 234/9/1 235/10/1 236/11/1
f 237/8/1 238/9/1 239/10/1 240/11/1
f 241/8/1 242/9/1 243/10/1 244/11/1
f 245/8/1 246/9/1 247/10/1 248/11/1
f 249/5/1 250/4/1 251/6/1 252/7/1
f 253/5/1 254/4/1 255/6/1 256/7/1
f 257/5/1 258/4/1 259/6/1 260/7/1
f 261/5/1 262/4/1 263/6/1 264/7/1
f 265/5/1 266/4/1 267/6/1 268/7/1
f 269/5/1 270/4/1 271/6/1 272/7/1
f 273/5/1 274/4/1 275/6/1 276/7/1
f 277/5/1 278/4/1 279/6/1 280/7/1
f 281/5/1 282/4/1 283/6/1 284/7/1
f 285/5/1 286/4/1 287/6/1 288/7/1
f 289/5/1 290/4/1 291/6/1 292/7/1
f 293/5/1 294/4/1 295/6/1 296/7/1
f 297/8/1 298/9/1 299/10/1 300/11/1
f 301/8/1 302/9/1 303/10/1 304/11/1
f 305/8/1 306/9/1 307/10/1 308/11/1
f 309/8/1 310/9/1 311/10/1 312/11/1
f 313/8/1 314/9/1 315/10/1 316/11/1
f 317/5/1 318/4/1 319/6/1 320/7/1
f 321/5/1 322/4/1 323/6/1 324/7/1
f 325/5/1 326/4/1 327/6/1 328/7/1
f 329/5/1 330/4/1 331/6/1 332/7/1
f 333/5/1 334/4/1 335/6/1 336/7/1
f 337/5/1 338/4/1 339/6/1 340/7/1
f 341/5/1 342/4/1 343/6/1 344/7/1
f 345/5/1 346/4/1 347/6/1 348/7/1
f 349/5/1 350/4/1 351/6/1 352/7/1
f 353/5/1 354/4/1 355/6/1 356/7/1
f 357/5/1 358/4/1 359/6/1 360/7/1
f 361/5/1 362/4/1 363/6/1 364/7/1
f 365/8/1 366/9/1 367/10/1 368/11/1
f 369/8/1 370/9/1 371/10/1 372/11/1
f 373/8/1 374/9/1 375/10/1 376/11/1
f 377/8/1 378/9/1 379/10/1 380/11/1
f 381/8/1 382/9/1 383/10/1 384/11/1
f 385/5/1 386/4/1 387/6/1 388/7/1
f 389/5/1 390/4/1 391/6/1 392/7/1
f 393/5/1 394/4/1 395/6/1 396/7/1
f 397/5/1 398/4/1 399/6/1 400/7/1
f 401/5/1 402/4/1 403/6/1 404/7/1
f 405/5/1 406/4/1 407/6/1 408/7/1
f 409/5/1 410/4/1 411/6/1 412/7/1
f 413/5/1 414/4/1 415/6/1 416/7/1
f 417/5/1 418/4/1 419/6/1 420/7/1
f 421/5/1 422/4/1 423/6/1 424/7/1
f 425/5/1 426/4/1 427/6/1 428/7/1
f 429/5/1 430/4/1 431/6/1 432/7/1
f 433/8/1 434/9/1 435/10/1 436/11/1
f 437/8/1 438/9/1 439/10/1 440/11/1
f 441/8/1 442/9/1 443/10/1 444/11/1
f 445/8/1 446/9/1 447/10/1 448/11/1
f 449/8/1 450/9/1 451/10/1 452/11/1
f 453/5/1 454/4/1 455/6/1 456/7/1
f 457/5/1 458/4/1 459/6/1 460/7/1
f 461/5/1 462/4/1 463/6/1 464/7/1
f 465/5/1 466/4/1 467/6/1 468/7/1
f 469/5/1 470/4/1 471/6/1 472/7/1
f 473/5/1 474/4/1 475/6/1 476/7/1
f 477/5/1 478/4/1 479/6/1 480/7/1
f 481/5/1 482/4/1 483/6/1 484/7/1
f 485/5/1 486/4/1 487/6/1 488/7/1
f 489/5/1 490/4/1 491/6/1 492/7/1
f 493/5/1 494/4/1 495/6/1 496/7/1
f 497/5/1 498/4/1 499/6/1 500/7/1
f 501/8/1 502/9/1 503/10/1 504/11/1
f 505/8/1 506/9/1 507/10/1 508/11/1
f 509/8/1 510/9/1 511/10/1 512/11/1
f 513/8/1 514/9/1 515/10/1 516/11/1
f 517/8/1 518/9/1 519/10/1 520/11/1
f 521/5/1 522/4/1 523/6/1 524/7/1
f 525/5/1 526/4/1 527/6/1 528/7/1
f 529/5/1 530/4/1 531/6/1 532/7/1
f 533/5/1 534/4/1 535/6/1 536/7/1
f 537/5/1 538/4/1 539/6/1 540/7/1
f 541/5/1 542/4/1 543/6/1 544/7/1
f 545/5/1 546/4/1 547/6/1 548/7/1
f 549/5/1 550/4/1 551/6/1 552/7/1
f 553/5/1 554/4/1 555/6/1 556/7/1
f 557/5/1 558/4/1 559/6/1 560/7/1
f 561/5/1 562/4/1 563/6/1 564/7/1
f 565/5/1 566/4/1 567/6/1 568/7/1
f 569/8/1 570/9/1 571/10/1 572/11/1
f 573/8/1 574/9/1 575/10/1 576/11/1
f 577/8/1 578/9/1 579/10/1 580/11/1
f 581/8/1 582/9/1 583/10/1 584/11/1
f 585/8/1 586/9/1 587/10/1 588/11/1
f 589/5/1 590/4/1 591/6/1 592/7/1
f 593/5/1 594/4/1 595/6/1 596/7/1
f 597/5/1 598/4/1 599/6/1 600/7/1
f 601/5/1 602/4/1 603/6/1 604/7/1
f 605/5/1 606/4/1 607/6/1 608/7/1
f 609/5/1 610/4/1 611/6/1 612/7/1
f 613/5/1 614/4/1 615/6/1 616/7/1
f 617/5/1 618/4/1 619/6/1 620/7/1
f 621/5/1 622/4/1 623/6/1 624/7/1
f 625/5/1 626/4/1 627/6/1 628/7/1
f 629/5/1 630/4/1 631/6/1 632/7/1
f 633/5/1 634/4/1 635/6/1 636/7/1
f 637/8/1 638/9/1 639/10/1 640/11/1
f 641/8/1 642/9/1 643/10/1 644/11/1
f 645/8/1 646/9/1 647/10/1 648/11/1
f 649/8/1 650/9/1 651/10/1 652/11/1
f 653/8/1 654/9/1 655/10/1 656/11/1
f 657/5/1 658/4/1 659/6/1 660/7/1
f 661/5/1 662/4/1 663/6/1 664/7/1
f 665/5/1 666/4/1 667/6/1 668/7/1
f 669/5/1 670/4/1 671/6/1 672/7/1
f 673/5/1 674/4/1 675/6/1 676/7/1
f 677/5/1 678/4/1 679/6/1 680/7/1
f 681/5/1 682/4/1 683/6/1 684/7/1
f 685/5/1 686/4/1 687/6/1 688/7/1
f 689/5/1 690/4/1 691/6/1 692/7/1
f 693/5/1 694/4/1 695/6/1 696/7/1
f 697/5/1 698/4/1 699/6/1 700/7/1
f 701/5/1 702/4/1 703/6/1 704/7/1
f 705/8/1 706/9/1 707/10/1 708/11/1
f 709/8/1 710/9/1 711/10/1 712/11/1
f 713/8/1 714/9/1 715/10/1 716/11/1
f 717/8/1 718/9/1 719/10/1 720/11/1
f 721/8/1 722/9/1 723/10/1 724/11/1
f 725/5/1 726/4/1 727/6/1 728/7/1
f 729/5/1 730/4/1 731/6/1 732/7/1
f 733/5/1 734/4/1 735/6/1 736/7/1
f 737/5/1 738/4/1 739/6/1 740/7/1
f 741/5/1 742/4/1 743/6/1 744/7/1
f 745/5/1 746/4/1 747/6/1 748/7/1
f 749/5/1 750/4/1 751/6/1 752/7/1
f 753/5/1 754/4/1 755/6/1 756/7/1
f 757/5/1 758/4/1 759/6/1 760/7/1
f 761/5/1 762/4/1 763/6/1 764/7/1
f 765/5/1 766/4/1 767/6/1 768/7/1
f 769/5/1 770/4/1 771/6/1 772/7/1
f 773/8/1 774/9/1 775/10/1 776/11/1
f 777/8/1 778/9/1 779/10/1 780/11/1
f 781/8/1 782/9/1 783/10/1 784/11/1
f 785/8/1 786/9/1 787/10/1 788/11/1
f 789/8/1 790/9/1 791/10/1 792/11/1
f 793/5/1 794/4/1 795/6/1 796/7/1
f 797/5/1 798/4/1 799/6/1 800/7/1
f 801/5/1 802/4/1 803/6/1 804/7/1
f 805/5/1 806/4/1 807/6/1 808/7/1
f 809/5/1 810/4/1 811/6/1 812/7/1
f 813/5/1 814/4/1 815/6/1 816/7/1
f 817/5/1 818/4/1 819/6/1 820/7/1
f 821/5/1 822/4/1 823/6/1 824/7/1
f 825/5/1 826/4/1 827/6/1 828/7/1
f 829/5/1 830/4/1 831/6/1 832/7/1
f 833/5/1 834/4/1 835/6/1 836/7/1
f 837/5/1 838/4/1 839/6/1 840/7/1
f 841/8/1 842/9/1 843/10/1 844/11/1
f 845/8/1 846/9/1 847/10/1 848/11/1
f 849/8/1 850/9/1 851/10/1 852/11/1
f 853/8/1 854/9/1 855/10/1 856/11/1
f 857/8/1 858/9/1 859/10/1 860/11/1
f 861/5/1 862/4/1 863/6/1 864/7/1
f 865/5/1 866/4/1 867/6/1 868/7/1
f 869/5/1 870/4/1 871/6/1 872/7/1
f 873/5/1 874/4/1 875/6/1 876/7/1
f 877/5/1 878/4/1 879/6/1 880/7/1
f 881/5/1 882/4/1 883/6/1 884/7/1

