# Tiled2Unity generated file. Do not modify by hand.
# Wavefront file for 'test0520_mesh_0003.obj'

# Vertices (Count = 200)
v -144 -336 0
v -192 -336 0
v -192 -288 0
v -144 -288 0
v -192 -336 0
v -240 -336 0
v -240 -288 0
v -192 -288 0
v -240 -336 0
v -288 -336 0
v -288 -288 0
v -240 -288 0
v -288 -336 0
v -336 -336 0
v -336 -288 0
v -288 -288 0
v -336 -336 0
v -384 -336 0
v -384 -288 0
v -336 -288 0
v -384 -336 0
v -432 -336 0
v -432 -288 0
v -384 -288 0
v -432 -336 0
v -480 -336 0
v -480 -288 0
v -432 -288 0
v -480 -336 0
v -528 -336 0
v -528 -288 0
v -480 -288 0
v -528 -336 0
v -576 -336 0
v -576 -288 0
v -528 -288 0
v -576 -336 0
v -624 -336 0
v -624 -288 0
v -576 -288 0
v -144 -384 0
v -192 -384 0
v -192 -336 0
v -144 -336 0
v -192 -384 0
v -240 -384 0
v -240 -336 0
v -192 -336 0
v -240 -384 0
v -288 -384 0
v -288 -336 0
v -240 -336 0
v -288 -384 0
v -336 -384 0
v -336 -336 0
v -288 -336 0
v -336 -384 0
v -384 -384 0
v -384 -336 0
v -336 -336 0
v -384 -384 0
v -432 -384 0
v -432 -336 0
v -384 -336 0
v -432 -384 0
v -480 -384 0
v -480 -336 0
v -432 -336 0
v -480 -384 0
v -528 -384 0
v -528 -336 0
v -480 -336 0
v -528 -384 0
v -576 -384 0
v -576 -336 0
v -528 -336 0
v -576 -384 0
v -624 -384 0
v -624 -336 0
v -576 -336 0
v -144 -432 0
v -192 -432 0
v -192 -384 0
v -144 -384 0
v -192 -432 0
v -240 -432 0
v -240 -384 0
v -192 -384 0
v -240 -432 0
v -288 -432 0
v -288 -384 0
v -240 -384 0
v -288 -432 0
v -336 -432 0
v -336 -384 0
v -288 -384 0
v -336 -432 0
v -384 -432 0
v -384 -384 0
v -336 -384 0
v -384 -432 0
v -432 -432 0
v -432 -384 0
v -384 -384 0
v -432 -432 0
v -480 -432 0
v -480 -384 0
v -432 -384 0
v -480 -432 0
v -528 -432 0
v -528 -384 0
v -480 -384 0
v -528 -432 0
v -576 -432 0
v -576 -384 0
v -528 -384 0
v -576 -432 0
v -624 -432 0
v -624 -384 0
v -576 -384 0
v -144 -480 0
v -192 -480 0
v -192 -432 0
v -144 -432 0
v -192 -480 0
v -240 -480 0
v -240 -432 0
v -192 -432 0
v -240 -480 0
v -288 -480 0
v -288 -432 0
v -240 -432 0
v -288 -480 0
v -336 -480 0
v -336 -432 0
v -288 -432 0
v -336 -480 0
v -384 -480 0
v -384 -432 0
v -336 -432 0
v -384 -480 0
v -432 -480 0
v -432 -432 0
v -384 -432 0
v -432 -480 0
v -480 -480 0
v -480 -432 0
v -432 -432 0
v -480 -480 0
v -528 -480 0
v -528 -432 0
v -480 -432 0
v -528 -480 0
v -576 -480 0
v -576 -432 0
v -528 -432 0
v -576 -480 0
v -624 -480 0
v -624 -432 0
v -576 -432 0
v -144 -528 0
v -192 -528 0
v -192 -480 0
v -144 -480 0
v -192 -528 0
v -240 -528 0
v -240 -480 0
v -192 -480 0
v -240 -528 0
v -288 -528 0
v -288 -480 0
v -240 -480 0
v -288 -528 0
v -336 -528 0
v -336 -480 0
v -288 -480 0
v -336 -528 0
v -384 -528 0
v -384 -480 0
v -336 -480 0
v -384 -528 0
v -432 -528 0
v -432 -480 0
v -384 -480 0
v -432 -528 0
v -480 -528 0
v -480 -480 0
v -432 -480 0
v -480 -528 0
v -528 -528 0
v -528 -480 0
v -480 -480 0
v -528 -528 0
v -576 -528 0
v -576 -480 0
v -528 -480 0
v -576 -528 0
v -624 -528 0
v -624 -480 0
v -576 -480 0

# Texture cooridinates (Count = 36)
vt 0 0.8992
vt 0.1875 0.8992
vt 0.1875 0.9016
vt 0 0.9016
vt 0.375 0.8992
vt 0.375 0.9016
vt 0.5625 0.8992
vt 0.5625 0.9016
vt 0.75 0.8992
vt 0.75 0.9016
vt 0.9375 0.8992
vt 0.9375 0.9016
vt 0 0.8968
vt 0.1875 0.8968
vt 0.375 0.8968
vt 0.5625 0.8968
vt 0.75 0.8968
vt 0.9375 0.8968
vt 0 0.8944
vt 0.1875 0.8944
vt 0.375 0.8944
vt 0.5625 0.8944
vt 0.75 0.8944
vt 0.9375 0.8944
vt 0 0.892
vt 0.1875 0.892
vt 0.375 0.892
vt 0.5625 0.892
vt 0.75 0.892
vt 0.9375 0.892
vt 0 0.8896
vt 0.1875 0.8896
vt 0.375 0.8896
vt 0.5625 0.8896
vt 0.75 0.8896
vt 0.9375 0.8896

# Normal
vn 0 0 -1

# Mesh description
g test0520_mesh_0003

# Faces
f 1/1/1 2/2/1 3/3/1 4/4/1
f 5/2/1 6/5/1 7/6/1 8/3/1
f 9/5/1 10/7/1 11/8/1 12/6/1
f 13/7/1 14/9/1 15/10/1 16/8/1
f 17/9/1 18/11/1 19/12/1 20/10/1
f 21/11/1 22/9/1 23/10/1 24/12/1
f 25/9/1 26/7/1 27/8/1 28/10/1
f 29/7/1 30/5/1 31/6/1 32/8/1
f 33/5/1 34/2/1 35/3/1 36/6/1
f 37/2/1 38/1/1 39/4/1 40/3/1
f 41/13/1 42/14/1 43/2/1 44/1/1
f 45/14/1 46/15/1 47/5/1 48/2/1
f 49/15/1 50/16/1 51/7/1 52/5/1
f 53/16/1 54/17/1 55/9/1 56/7/1
f 57/17/1 58/18/1 59/11/1 60/9/1
f 61/18/1 62/17/1 63/9/1 64/11/1
f 65/17/1 66/16/1 67/7/1 68/9/1
f 69/16/1 70/15/1 71/5/1 72/7/1
f 73/15/1 74/14/1 75/2/1 76/5/1
f 77/14/1 78/13/1 79/1/1 80/2/1
f 81/19/1 82/20/1 83/14/1 84/13/1
f 85/20/1 86/21/1 87/15/1 88/14/1
f 89/21/1 90/22/1 91/16/1 92/15/1
f 93/22/1 94/23/1 95/17/1 96/16/1
f 97/23/1 98/24/1 99/18/1 100/17/1
f 101/24/1 102/23/1 103/17/1 104/18/1
f 105/23/1 106/22/1 107/16/1 108/17/1
f 109/22/1 110/21/1 111/15/1 112/16/1
f 113/21/1 114/20/1 115/14/1 116/15/1
f 117/20/1 118/19/1 119/13/1 120/14/1
f 121/25/1 122/26/1 123/20/1 124/19/1
f 125/26/1 126/27/1 127/21/1 128/20/1
f 129/27/1 130/28/1 131/22/1 132/21/1
f 133/28/1 134/29/1 135/23/1 136/22/1
f 137/29/1 138/30/1 139/24/1 140/23/1
f 141/30/1 142/29/1 143/23/1 144/24/1
f 145/29/1 146/28/1 147/22/1 148/23/1
f 149/28/1 150/27/1 151/21/1 152/22/1
f 153/27/1 154/26/1 155/20/1 156/21/1
f 157/26/1 158/25/1 159/19/1 160/20/1
f 161/31/1 162/32/1 163/26/1 164/25/1
f 165/32/1 166/33/1 167/27/1 168/26/1
f 169/33/1 170/34/1 171/28/1 172/27/1
f 173/34/1 174/35/1 175/29/1 176/28/1
f 177/35/1 178/36/1 179/30/1 180/29/1
f 181/36/1 182/35/1 183/29/1 184/30/1
f 185/35/1 186/34/1 187/28/1 188/29/1
f 189/34/1 190/33/1 191/27/1 192/28/1
f 193/33/1 194/32/1 195/26/1 196/27/1
f 197/32/1 198/31/1 199/25/1 200/26/1

