# Tiled2Unity generated file. Do not modify by hand.
# Wavefront file for 'test0520_mesh_0002.obj'

# Vertices (Count = 172)
v 0 -96 0
v -64 -96 0
v -64 -32 0
v 0 -32 0
v -48 -96 0
v -112 -96 0
v -112 -32 0
v -48 -32 0
v -96 -96 0
v -160 -96 0
v -160 -32 0
v -96 -32 0
v -144 -96 0
v -208 -96 0
v -208 -32 0
v -144 -32 0
v -192 -96 0
v -256 -96 0
v -256 -32 0
v -192 -32 0
v -240 -96 0
v -304 -96 0
v -304 -32 0
v -240 -32 0
v -288 -96 0
v -352 -96 0
v -352 -32 0
v -288 -32 0
v -336 -96 0
v -400 -96 0
v -400 -32 0
v -336 -32 0
v 0 -144 0
v -64 -144 0
v -64 -80 0
v 0 -80 0
v -48 -144 0
v -112 -144 0
v -112 -80 0
v -48 -80 0
v -96 -144 0
v -160 -144 0
v -160 -80 0
v -96 -80 0
v -144 -144 0
v -208 -144 0
v -208 -80 0
v -144 -80 0
v -192 -144 0
v -256 -144 0
v -256 -80 0
v -192 -80 0
v -240 -144 0
v -304 -144 0
v -304 -80 0
v -240 -80 0
v -288 -144 0
v -352 -144 0
v -352 -80 0
v -288 -80 0
v -336 -144 0
v -400 -144 0
v -400 -80 0
v -336 -80 0
v 0 -192 0
v -64 -192 0
v -64 -128 0
v 0 -128 0
v -48 -192 0
v -112 -192 0
v -112 -128 0
v -48 -128 0
v -96 -192 0
v -160 -192 0
v -160 -128 0
v -96 -128 0
v -144 -192 0
v -208 -192 0
v -208 -128 0
v -144 -128 0
v -192 -192 0
v -256 -192 0
v -256 -128 0
v -192 -128 0
v -240 -192 0
v -304 -192 0
v -304 -128 0
v -240 -128 0
v -288 -192 0
v -352 -192 0
v -352 -128 0
v -288 -128 0
v -336 -192 0
v -400 -192 0
v -400 -128 0
v -336 -128 0
v 0 -240 0
v -64 -240 0
v -64 -176 0
v 0 -176 0
v -48 -240 0
v -112 -240 0
v -112 -176 0
v -48 -176 0
v -96 -240 0
v -160 -240 0
v -160 -176 0
v -96 -176 0
v -144 -240 0
v -208 -240 0
v -208 -176 0
v -144 -176 0
v -192 -240 0
v -256 -240 0
v -256 -176 0
v -192 -176 0
v -240 -240 0
v -304 -240 0
v -304 -176 0
v -240 -176 0
v -288 -240 0
v -352 -240 0
v -352 -176 0
v -288 -176 0
v -336 -240 0
v -400 -240 0
v -400 -176 0
v -336 -176 0
v 0 -288 0
v -64 -288 0
v -64 -224 0
v 0 -224 0
v -48 -288 0
v -112 -288 0
v -112 -224 0
v -48 -224 0
v -96 -288 0
v -160 -288 0
v -160 -224 0
v -96 -224 0
v -144 -288 0
v -208 -288 0
v -208 -224 0
v -144 -224 0
v -192 -288 0
v -256 -288 0
v -256 -224 0
v -192 -224 0
v -240 -288 0
v -304 -288 0
v -304 -224 0
v -240 -224 0
v -288 -288 0
v -352 -288 0
v -352 -224 0
v -288 -224 0
v -336 -288 0
v -400 -288 0
v -400 -224 0
v -336 -224 0
v 0 -336 0
v -64 -336 0
v -64 -272 0
v 0 -272 0
v -48 -336 0
v -112 -336 0
v -112 -272 0
v -48 -272 0
v -96 -336 0
v -160 -336 0
v -160 -272 0
v -96 -272 0

# Texture cooridinates (Count = 34)
vt 0 0.5168
vt 0.25 0.5168
vt 0.25 0.52
vt 0 0.52
vt 0.5 0.5168
vt 0.5 0.52
vt 0.75 0.5168
vt 0.75 0.52
vt 1 0.5168
vt 1 0.52
vt 0 0.5136
vt 0.25 0.5136
vt 0.5 0.5136
vt 0.75 0.5136
vt 1 0.5136
vt 0 0.5104
vt 0.25 0.5104
vt 0.5 0.5104
vt 0.75 0.5104
vt 1 0.5104
vt 0 0.5072
vt 0.25 0.5072
vt 0.5 0.5072
vt 0.75 0.5072
vt 1 0.5072
vt 0 0.504
vt 0.25 0.504
vt 0.5 0.504
vt 0.75 0.504
vt 1 0.504
vt 0 0.5008
vt 0.25 0.5008
vt 0.5 0.5008
vt 0.75 0.5008

# Normal
vn 0 0 -1

# Mesh description
g test0520_mesh_0002

# Faces
f 1/1/1 2/2/1 3/3/1 4/4/1
f 5/2/1 6/5/1 7/6/1 8/3/1
f 9/5/1 10/7/1 11/8/1 12/6/1
f 13/7/1 14/9/1 15/10/1 16/8/1
f 17/9/1 18/7/1 19/8/1 20/10/1
f 21/7/1 22/5/1 23/6/1 24/8/1
f 25/5/1 26/2/1 27/3/1 28/6/1
f 29/2/1 30/1/1 31/4/1 32/3/1
f 33/11/1 34/12/1 35/2/1 36/1/1
f 37/12/1 38/13/1 39/5/1 40/2/1
f 41/13/1 42/14/1 43/7/1 44/5/1
f 45/14/1 46/15/1 47/9/1 48/7/1
f 49/15/1 50/14/1 51/7/1 52/9/1
f 53/14/1 54/13/1 55/5/1 56/7/1
f 57/13/1 58/12/1 59/2/1 60/5/1
f 61/12/1 62/11/1 63/1/1 64/2/1
f 65/16/1 66/17/1 67/12/1 68/11/1
f 69/17/1 70/18/1 71/13/1 72/12/1
f 73/18/1 74/19/1 75/14/1 76/13/1
f 77/19/1 78/20/1 79/15/1 80/14/1
f 81/20/1 82/19/1 83/14/1 84/15/1
f 85/19/1 86/18/1 87/13/1 88/14/1
f 89/18/1 90/17/1 91/12/1 92/13/1
f 93/17/1 94/16/1 95/11/1 96/12/1
f 97/21/1 98/22/1 99/17/1 100/16/1
f 101/22/1 102/23/1 103/18/1 104/17/1
f 105/23/1 106/24/1 107/19/1 108/18/1
f 109/24/1 110/25/1 111/20/1 112/19/1
f 113/25/1 114/24/1 115/19/1 116/20/1
f 117/24/1 118/23/1 119/18/1 120/19/1
f 121/23/1 122/22/1 123/17/1 124/18/1
f 125/22/1 126/21/1 127/16/1 128/17/1
f 129/26/1 130/27/1 131/22/1 132/21/1
f 133/27/1 134/28/1 135/23/1 136/22/1
f 137/28/1 138/29/1 139/24/1 140/23/1
f 141/29/1 142/30/1 143/25/1 144/24/1
f 145/30/1 146/29/1 147/24/1 148/25/1
f 149/29/1 150/28/1 151/23/1 152/24/1
f 153/28/1 154/27/1 155/22/1 156/23/1
f 157/27/1 158/26/1 159/21/1 160/22/1
f 161/31/1 162/32/1 163/27/1 164/26/1
f 165/32/1 166/33/1 167/28/1 168/27/1
f 169/33/1 170/34/1 171/29/1 172/28/1

