# Tiled2Unity generated file. Do not modify by hand.
# Wavefront file for 'Dengen_mesh_0002.obj'

# Vertices (Count = 672)
v 0 -48 0
v -48 -48 0
v -48 0 0
v 0 0 0
v -48 -48 0
v -96 -48 0
v -96 0 0
v -48 0 0
v -96 -48 0
v -144 -48 0
v -144 0 0
v -96 0 0
v -144 -48 0
v -192 -48 0
v -192 0 0
v -144 0 0
v -192 -48 0
v -240 -48 0
v -240 0 0
v -192 0 0
v -240 -48 0
v -288 -48 0
v -288 0 0
v -240 0 0
v -288 -48 0
v -336 -48 0
v -336 0 0
v -288 0 0
v -336 -48 0
v -384 -48 0
v -384 0 0
v -336 0 0
v -384 -48 0
v -432 -48 0
v -432 0 0
v -384 0 0
v -432 -48 0
v -480 -48 0
v -480 0 0
v -432 0 0
v -480 -48 0
v -528 -48 0
v -528 0 0
v -480 0 0
v -528 -48 0
v -576 -48 0
v -576 0 0
v -528 0 0
v -576 -48 0
v -624 -48 0
v -624 0 0
v -576 0 0
v -624 -48 0
v -672 -48 0
v -672 0 0
v -624 0 0
v -672 -48 0
v -720 -48 0
v -720 0 0
v -672 0 0
v -720 -48 0
v -768 -48 0
v -768 0 0
v -720 0 0
v -768 -48 0
v -816 -48 0
v -816 0 0
v -768 0 0
v -816 -48 0
v -864 -48 0
v -864 0 0
v -816 0 0
v -864 -48 0
v -912 -48 0
v -912 0 0
v -864 0 0
v -912 -48 0
v -960 -48 0
v -960 0 0
v -912 0 0
v -960 -48 0
v -1008 -48 0
v -1008 0 0
v -960 0 0
v -1008 -48 0
v -1056 -48 0
v -1056 0 0
v -1008 0 0
v -1056 -48 0
v -1104 -48 0
v -1104 0 0
v -1056 0 0
v -1104 -48 0
v -1152 -48 0
v -1152 0 0
v -1104 0 0
v -1152 -48 0
v -1200 -48 0
v -1200 0 0
v -1152 0 0
v -1200 -48 0
v -1248 -48 0
v -1248 0 0
v -1200 0 0
v -1248 -48 0
v -1296 -48 0
v -1296 0 0
v -1248 0 0
v -1296 -48 0
v -1344 -48 0
v -1344 0 0
v -1296 0 0
v -1344 -48 0
v -1392 -48 0
v -1392 0 0
v -1344 0 0
v -1392 -48 0
v -1440 -48 0
v -1440 0 0
v -1392 0 0
v -1440 -48 0
v -1488 -48 0
v -1488 0 0
v -1440 0 0
v -1488 -48 0
v -1536 -48 0
v -1536 0 0
v -1488 0 0
v 0 -96 0
v -48 -96 0
v -48 -48 0
v 0 -48 0
v -1344 -96 0
v -1392 -96 0
v -1392 -48 0
v -1344 -48 0
v -1392 -96 0
v -1440 -96 0
v -1440 -48 0
v -1392 -48 0
v -1488 -96 0
v -1536 -96 0
v -1536 -48 0
v -1488 -48 0
v 0 -144 0
v -48 -144 0
v -48 -96 0
v 0 -96 0
v -1344 -144 0
v -1392 -144 0
v -1392 -96 0
v -1344 -96 0
v -1392 -144 0
v -1440 -144 0
v -1440 -96 0
v -1392 -96 0
v -1488 -144 0
v -1536 -144 0
v -1536 -96 0
v -1488 -96 0
v 0 -192 0
v -48 -192 0
v -48 -144 0
v 0 -144 0
v -1488 -192 0
v -1536 -192 0
v -1536 -144 0
v -1488 -144 0
v 0 -240 0
v -48 -240 0
v -48 -192 0
v 0 -192 0
v -1488 -240 0
v -1536 -240 0
v -1536 -192 0
v -1488 -192 0
v 0 -288 0
v -48 -288 0
v -48 -240 0
v 0 -240 0
v -1488 -288 0
v -1536 -288 0
v -1536 -240 0
v -1488 -240 0
v 0 -336 0
v -48 -336 0
v -48 -288 0
v 0 -288 0
v -336 -336 0
v -384 -336 0
v -384 -288 0
v -336 -288 0
v -384 -336 0
v -432 -336 0
v -432 -288 0
v -384 -288 0
v -1008 -336 0
v -1056 -336 0
v -1056 -288 0
v -1008 -288 0
v -1056 -336 0
v -1104 -336 0
v -1104 -288 0
v -1056 -288 0
v -1488 -336 0
v -1536 -336 0
v -1536 -288 0
v -1488 -288 0
v 0 -384 0
v -48 -384 0
v -48 -336 0
v 0 -336 0
v -336 -384 0
v -384 -384 0
v -384 -336 0
v -336 -336 0
v -384 -384 0
v -432 -384 0
v -432 -336 0
v -384 -336 0
v -1008 -384 0
v -1056 -384 0
v -1056 -336 0
v -1008 -336 0
v -1056 -384 0
v -1104 -384 0
v -1104 -336 0
v -1056 -336 0
v -1488 -384 0
v -1536 -384 0
v -1536 -336 0
v -1488 -336 0
v 0 -432 0
v -48 -432 0
v -48 -384 0
v 0 -384 0
v -1488 -432 0
v -1536 -432 0
v -1536 -384 0
v -1488 -384 0
v 0 -480 0
v -48 -480 0
v -48 -432 0
v 0 -432 0
v -1488 -480 0
v -1536 -480 0
v -1536 -432 0
v -1488 -432 0
v 0 -528 0
v -48 -528 0
v -48 -480 0
v 0 -480 0
v -1488 -528 0
v -1536 -528 0
v -1536 -480 0
v -1488 -480 0
v 0 -576 0
v -48 -576 0
v -48 -528 0
v 0 -528 0
v -624 -576 0
v -672 -576 0
v -672 -528 0
v -624 -528 0
v -672 -576 0
v -720 -576 0
v -720 -528 0
v -672 -528 0
v -1248 -576 0
v -1296 -576 0
v -1296 -528 0
v -1248 -528 0
v -1296 -576 0
v -1344 -576 0
v -1344 -528 0
v -1296 -528 0
v -1488 -576 0
v -1536 -576 0
v -1536 -528 0
v -1488 -528 0
v 0 -624 0
v -48 -624 0
v -48 -576 0
v 0 -576 0
v -624 -624 0
v -672 -624 0
v -672 -576 0
v -624 -576 0
v -672 -624 0
v -720 -624 0
v -720 -576 0
v -672 -576 0
v -1248 -624 0
v -1296 -624 0
v -1296 -576 0
v -1248 -576 0
v -1296 -624 0
v -1344 -624 0
v -1344 -576 0
v -1296 -576 0
v -1488 -624 0
v -1536 -624 0
v -1536 -576 0
v -1488 -576 0
v 0 -672 0
v -48 -672 0
v -48 -624 0
v 0 -624 0
v -1488 -672 0
v -1536 -672 0
v -1536 -624 0
v -1488 -624 0
v 0 -720 0
v -48 -720 0
v -48 -672 0
v 0 -672 0
v -1488 -720 0
v -1536 -720 0
v -1536 -672 0
v -1488 -672 0
v 0 -768 0
v -48 -768 0
v -48 -720 0
v 0 -720 0
v -1488 -768 0
v -1536 -768 0
v -1536 -720 0
v -1488 -720 0
v 0 -816 0
v -48 -816 0
v -48 -768 0
v 0 -768 0
v -864 -816 0
v -912 -816 0
v -912 -768 0
v -864 -768 0
v -912 -816 0
v -960 -816 0
v -960 -768 0
v -912 -768 0
v -1488 -816 0
v -1536 -816 0
v -1536 -768 0
v -1488 -768 0
v 0 -864 0
v -48 -864 0
v -48 -816 0
v 0 -816 0
v -240 -864 0
v -288 -864 0
v -288 -816 0
v -240 -816 0
v -288 -864 0
v -336 -864 0
v -336 -816 0
v -288 -816 0
v -864 -864 0
v -912 -864 0
v -912 -816 0
v -864 -816 0
v -912 -864 0
v -960 -864 0
v -960 -816 0
v -912 -816 0
v -1488 -864 0
v -1536 -864 0
v -1536 -816 0
v -1488 -816 0
v 0 -912 0
v -48 -912 0
v -48 -864 0
v 0 -864 0
v -240 -912 0
v -288 -912 0
v -288 -864 0
v -240 -864 0
v -288 -912 0
v -336 -912 0
v -336 -864 0
v -288 -864 0
v -1488 -912 0
v -1536 -912 0
v -1536 -864 0
v -1488 -864 0
v 0 -960 0
v -48 -960 0
v -48 -912 0
v 0 -912 0
v -1488 -960 0
v -1536 -960 0
v -1536 -912 0
v -1488 -912 0
v 0 -1008 0
v -48 -1008 0
v -48 -960 0
v 0 -960 0
v -1488 -1008 0
v -1536 -1008 0
v -1536 -960 0
v -1488 -960 0
v 0 -1056 0
v -48 -1056 0
v -48 -1008 0
v 0 -1008 0
v -1488 -1056 0
v -1536 -1056 0
v -1536 -1008 0
v -1488 -1008 0
v 0 -1104 0
v -48 -1104 0
v -48 -1056 0
v 0 -1056 0
v -624 -1104 0
v -672 -1104 0
v -672 -1056 0
v -624 -1056 0
v -672 -1104 0
v -720 -1104 0
v -720 -1056 0
v -672 -1056 0
v -1200 -1104 0
v -1248 -1104 0
v -1248 -1056 0
v -1200 -1056 0
v -1248 -1104 0
v -1296 -1104 0
v -1296 -1056 0
v -1248 -1056 0
v -1488 -1104 0
v -1536 -1104 0
v -1536 -1056 0
v -1488 -1056 0
v 0 -1152 0
v -48 -1152 0
v -48 -1104 0
v 0 -1104 0
v -624 -1152 0
v -672 -1152 0
v -672 -1104 0
v -624 -1104 0
v -672 -1152 0
v -720 -1152 0
v -720 -1104 0
v -672 -1104 0
v -1200 -1152 0
v -1248 -1152 0
v -1248 -1104 0
v -1200 -1104 0
v -1248 -1152 0
v -1296 -1152 0
v -1296 -1104 0
v -1248 -1104 0
v -1488 -1152 0
v -1536 -1152 0
v -1536 -1104 0
v -1488 -1104 0
v 0 -1200 0
v -48 -1200 0
v -48 -1152 0
v 0 -1152 0
v -1488 -1200 0
v -1536 -1200 0
v -1536 -1152 0
v -1488 -1152 0
v 0 -1248 0
v -48 -1248 0
v -48 -1200 0
v 0 -1200 0
v -1488 -1248 0
v -1536 -1248 0
v -1536 -1200 0
v -1488 -1200 0
v 0 -1296 0
v -48 -1296 0
v -48 -1248 0
v 0 -1248 0
v -1488 -1296 0
v -1536 -1296 0
v -1536 -1248 0
v -1488 -1248 0
v 0 -1344 0
v -48 -1344 0
v -48 -1296 0
v 0 -1296 0
v -192 -1344 0
v -240 -1344 0
v -240 -1296 0
v -192 -1296 0
v -240 -1344 0
v -288 -1344 0
v -288 -1296 0
v -240 -1296 0
v -864 -1344 0
v -912 -1344 0
v -912 -1296 0
v -864 -1296 0
v -912 -1344 0
v -960 -1344 0
v -960 -1296 0
v -912 -1296 0
v -1488 -1344 0
v -1536 -1344 0
v -1536 -1296 0
v -1488 -1296 0
v 0 -1392 0
v -48 -1392 0
v -48 -1344 0
v 0 -1344 0
v -192 -1392 0
v -240 -1392 0
v -240 -1344 0
v -192 -1344 0
v -240 -1392 0
v -288 -1392 0
v -288 -1344 0
v -240 -1344 0
v -720 -1392 0
v -768 -1392 0
v -768 -1344 0
v -720 -1344 0
v -864 -1392 0
v -912 -1392 0
v -912 -1344 0
v -864 -1344 0
v -912 -1392 0
v -960 -1392 0
v -960 -1344 0
v -912 -1344 0
v -1056 -1392 0
v -1104 -1392 0
v -1104 -1344 0
v -1056 -1344 0
v -1488 -1392 0
v -1536 -1392 0
v -1536 -1344 0
v -1488 -1344 0
v 0 -1440 0
v -48 -1440 0
v -48 -1392 0
v 0 -1392 0
v -720 -1440 0
v -768 -1440 0
v -768 -1392 0
v -720 -1392 0
v -1056 -1440 0
v -1104 -1440 0
v -1104 -1392 0
v -1056 -1392 0
v -1488 -1440 0
v -1536 -1440 0
v -1536 -1392 0
v -1488 -1392 0
v 0 -1488 0
v -48 -1488 0
v -48 -1440 0
v 0 -1440 0
v -720 -1488 0
v -768 -1488 0
v -768 -1440 0
v -720 -1440 0
v -1056 -1488 0
v -1104 -1488 0
v -1104 -1440 0
v -1056 -1440 0
v -1488 -1488 0
v -1536 -1488 0
v -1536 -1440 0
v -1488 -1440 0
v 0 -1536 0
v -48 -1536 0
v -48 -1488 0
v 0 -1488 0
v -48 -1536 0
v -96 -1536 0
v -96 -1488 0
v -48 -1488 0
v -96 -1536 0
v -144 -1536 0
v -144 -1488 0
v -96 -1488 0
v -144 -1536 0
v -192 -1536 0
v -192 -1488 0
v -144 -1488 0
v -192 -1536 0
v -240 -1536 0
v -240 -1488 0
v -192 -1488 0
v -240 -1536 0
v -288 -1536 0
v -288 -1488 0
v -240 -1488 0
v -288 -1536 0
v -336 -1536 0
v -336 -1488 0
v -288 -1488 0
v -336 -1536 0
v -384 -1536 0
v -384 -1488 0
v -336 -1488 0
v -384 -1536 0
v -432 -1536 0
v -432 -1488 0
v -384 -1488 0
v -432 -1536 0
v -480 -1536 0
v -480 -1488 0
v -432 -1488 0
v -480 -1536 0
v -528 -1536 0
v -528 -1488 0
v -480 -1488 0
v -528 -1536 0
v -576 -1536 0
v -576 -1488 0
v -528 -1488 0
v -576 -1536 0
v -624 -1536 0
v -624 -1488 0
v -576 -1488 0
v -624 -1536 0
v -672 -1536 0
v -672 -1488 0
v -624 -1488 0
v -672 -1536 0
v -720 -1536 0
v -720 -1488 0
v -672 -1488 0
v -720 -1536 0
v -768 -1536 0
v -768 -1488 0
v -720 -1488 0
v -1056 -1536 0
v -1104 -1536 0
v -1104 -1488 0
v -1056 -1488 0
v -1104 -1536 0
v -1152 -1536 0
v -1152 -1488 0
v -1104 -1488 0
v -1152 -1536 0
v -1200 -1536 0
v -1200 -1488 0
v -1152 -1488 0
v -1200 -1536 0
v -1248 -1536 0
v -1248 -1488 0
v -1200 -1488 0
v -1248 -1536 0
v -1296 -1536 0
v -1296 -1488 0
v -1248 -1488 0
v -1296 -1536 0
v -1344 -1536 0
v -1344 -1488 0
v -1296 -1488 0
v -1344 -1536 0
v -1392 -1536 0
v -1392 -1488 0
v -1344 -1488 0
v -1392 -1536 0
v -1440 -1536 0
v -1440 -1488 0
v -1392 -1488 0
v -1440 -1536 0
v -1488 -1536 0
v -1488 -1488 0
v -1440 -1488 0
v -1488 -1536 0
v -1536 -1536 0
v -1536 -1488 0
v -1488 -1488 0

# Texture cooridinates (Count = 13)
vt 0.8125 0.6666666
vt 0.75 0.6666666
vt 0.75 0.75
vt 0.8125 0.75
vt 0.5 0.8333333
vt 0.5625 0.8333333
vt 0.5625 0.9166667
vt 0.5 0.9166667
vt 0.625 0.8333333
vt 0.625 0.9166667
vt 0.5 0.75
vt 0.5625 0.75
vt 0.625 0.75

# Normal
vn 0 0 -1

# Mesh description
g Dengen_mesh_0002

# Faces
f 1/1/1 2/2/1 3/3/1 4/4/1
f 5/1/1 6/2/1 7/3/1 8/4/1
f 9/1/1 10/2/1 11/3/1 12/4/1
f 13/1/1 14/2/1 15/3/1 16/4/1
f 17/1/1 18/2/1 19/3/1 20/4/1
f 21/1/1 22/2/1 23/3/1 24/4/1
f 25/1/1 26/2/1 27/3/1 28/4/1
f 29/1/1 30/2/1 31/3/1 32/4/1
f 33/1/1 34/2/1 35/3/1 36/4/1
f 37/1/1 38/2/1 39/3/1 40/4/1
f 41/1/1 42/2/1 43/3/1 44/4/1
f 45/1/1 46/2/1 47/3/1 48/4/1
f 49/1/1 50/2/1 51/3/1 52/4/1
f 53/1/1 54/2/1 55/3/1 56/4/1
f 57/1/1 58/2/1 59/3/1 60/4/1
f 61/1/1 62/2/1 63/3/1 64/4/1
f 65/1/1 66/2/1 67/3/1 68/4/1
f 69/1/1 70/2/1 71/3/1 72/4/1
f 73/1/1 74/2/1 75/3/1 76/4/1
f 77/1/1 78/2/1 79/3/1 80/4/1
f 81/1/1 82/2/1 83/3/1 84/4/1
f 85/1/1 86/2/1 87/3/1 88/4/1
f 89/1/1 90/2/1 91/3/1 92/4/1
f 93/1/1 94/2/1 95/3/1 96/4/1
f 97/1/1 98/2/1 99/3/1 100/4/1
f 101/1/1 102/2/1 103/3/1 104/4/1
f 105/1/1 106/2/1 107/3/1 108/4/1
f 109/1/1 110/2/1 111/3/1 112/4/1
f 113/1/1 114/2/1 115/3/1 116/4/1
f 117/1/1 118/2/1 119/3/1 120/4/1
f 121/1/1 122/2/1 123/3/1 124/4/1
f 125/2/1 126/1/1 127/4/1 128/3/1
f 129/2/1 130/1/1 131/4/1 132/3/1
f 133/5/1 134/6/1 135/7/1 136/8/1
f 137/6/1 138/9/1 139/10/1 140/7/1
f 141/2/1 142/1/1 143/4/1 144/3/1
f 145/2/1 146/1/1 147/4/1 148/3/1
f 149/11/1 150/12/1 151/6/1 152/5/1
f 153/12/1 154/13/1 155/9/1 156/6/1
f 157/2/1 158/1/1 159/4/1 160/3/1
f 161/2/1 162/1/1 163/4/1 164/3/1
f 165/2/1 166/1/1 167/4/1 168/3/1
f 169/2/1 170/1/1 171/4/1 172/3/1
f 173/2/1 174/1/1 175/4/1 176/3/1
f 177/2/1 178/1/1 179/4/1 180/3/1
f 181/2/1 182/1/1 183/4/1 184/3/1
f 185/2/1 186/1/1 187/4/1 188/3/1
f 189/5/1 190/6/1 191/7/1 192/8/1
f 193/6/1 194/9/1 195/10/1 196/7/1
f 197/5/1 198/6/1 199/7/1 200/8/1
f 201/6/1 202/9/1 203/10/1 204/7/1
f 205/2/1 206/1/1 207/4/1 208/3/1
f 209/2/1 210/1/1 211/4/1 212/3/1
f 213/11/1 214/12/1 215/6/1 216/5/1
f 217/12/1 218/13/1 219/9/1 220/6/1
f 221/11/1 222/12/1 223/6/1 224/5/1
f 225/12/1 226/13/1 227/9/1 228/6/1
f 229/2/1 230/1/1 231/4/1 232/3/1
f 233/2/1 234/1/1 235/4/1 236/3/1
f 237/2/1 238/1/1 239/4/1 240/3/1
f 241/2/1 242/1/1 243/4/1 244/3/1
f 245/2/1 246/1/1 247/4/1 248/3/1
f 249/2/1 250/1/1 251/4/1 252/3/1
f 253/2/1 254/1/1 255/4/1 256/3/1
f 257/2/1 258/1/1 259/4/1 260/3/1
f 261/5/1 262/6/1 263/7/1 264/8/1
f 265/6/1 266/9/1 267/10/1 268/7/1
f 269/5/1 270/6/1 271/7/1 272/8/1
f 273/6/1 274/9/1 275/10/1 276/7/1
f 277/2/1 278/1/1 279/4/1 280/3/1
f 281/2/1 282/1/1 283/4/1 284/3/1
f 285/11/1 286/12/1 287/6/1 288/5/1
f 289/12/1 290/13/1 291/9/1 292/6/1
f 293/11/1 294/12/1 295/6/1 296/5/1
f 297/12/1 298/13/1 299/9/1 300/6/1
f 301/2/1 302/1/1 303/4/1 304/3/1
f 305/2/1 306/1/1 307/4/1 308/3/1
f 309/2/1 310/1/1 311/4/1 312/3/1
f 313/2/1 314/1/1 315/4/1 316/3/1
f 317/2/1 318/1/1 319/4/1 320/3/1
f 321/2/1 322/1/1 323/4/1 324/3/1
f 325/2/1 326/1/1 327/4/1 328/3/1
f 329/2/1 330/1/1 331/4/1 332/3/1
f 333/5/1 334/6/1 335/7/1 336/8/1
f 337/6/1 338/9/1 339/10/1 340/7/1
f 341/2/1 342/1/1 343/4/1 344/3/1
f 345/2/1 346/1/1 347/4/1 348/3/1
f 349/5/1 350/6/1 351/7/1 352/8/1
f 353/6/1 354/9/1 355/10/1 356/7/1
f 357/11/1 358/12/1 359/6/1 360/5/1
f 361/12/1 362/13/1 363/9/1 364/6/1
f 365/2/1 366/1/1 367/4/1 368/3/1
f 369/2/1 370/1/1 371/4/1 372/3/1
f 373/11/1 374/12/1 375/6/1 376/5/1
f 377/12/1 378/13/1 379/9/1 380/6/1
f 381/2/1 382/1/1 383/4/1 384/3/1
f 385/2/1 386/1/1 387/4/1 388/3/1
f 389/2/1 390/1/1 391/4/1 392/3/1
f 393/2/1 394/1/1 395/4/1 396/3/1
f 397/2/1 398/1/1 399/4/1 400/3/1
f 401/2/1 402/1/1 403/4/1 404/3/1
f 405/2/1 406/1/1 407/4/1 408/3/1
f 409/2/1 410/1/1 411/4/1 412/3/1
f 413/5/1 414/6/1 415/7/1 416/8/1
f 417/6/1 418/9/1 419/10/1 420/7/1
f 421/5/1 422/6/1 423/7/1 424/8/1
f 425/6/1 426/9/1 427/10/1 428/7/1
f 429/2/1 430/1/1 431/4/1 432/3/1
f 433/2/1 434/1/1 435/4/1 436/3/1
f 437/11/1 438/12/1 439/6/1 440/5/1
f 441/12/1 442/13/1 443/9/1 444/6/1
f 445/11/1 446/12/1 447/6/1 448/5/1
f 449/12/1 450/13/1 451/9/1 452/6/1
f 453/2/1 454/1/1 455/4/1 456/3/1
f 457/2/1 458/1/1 459/4/1 460/3/1
f 461/2/1 462/1/1 463/4/1 464/3/1
f 465/2/1 466/1/1 467/4/1 468/3/1
f 469/2/1 470/1/1 471/4/1 472/3/1
f 473/2/1 474/1/1 475/4/1 476/3/1
f 477/2/1 478/1/1 479/4/1 480/3/1
f 481/2/1 482/1/1 483/4/1 484/3/1
f 485/5/1 486/6/1 487/7/1 488/8/1
f 489/6/1 490/9/1 491/10/1 492/7/1
f 493/5/1 494/6/1 495/7/1 496/8/1
f 497/6/1 498/9/1 499/10/1 500/7/1
f 501/2/1 502/1/1 503/4/1 504/3/1
f 505/2/1 506/1/1 507/4/1 508/3/1
f 509/11/1 510/12/1 511/6/1 512/5/1
f 513/12/1 514/13/1 515/9/1 516/6/1
f 517/1/1 518/2/1 519/3/1 520/4/1
f 521/11/1 522/12/1 523/6/1 524/5/1
f 525/12/1 526/13/1 527/9/1 528/6/1
f 529/1/1 530/2/1 531/3/1 532/4/1
f 533/2/1 534/1/1 535/4/1 536/3/1
f 537/2/1 538/1/1 539/4/1 540/3/1
f 541/1/1 542/2/1 543/3/1 544/4/1
f 545/1/1 546/2/1 547/3/1 548/4/1
f 549/2/1 550/1/1 551/4/1 552/3/1
f 553/2/1 554/1/1 555/4/1 556/3/1
f 557/1/1 558/2/1 559/3/1 560/4/1
f 561/1/1 562/2/1 563/3/1 564/4/1
f 565/2/1 566/1/1 567/4/1 568/3/1
f 569/2/1 570/1/1 571/4/1 572/3/1
f 573/1/1 574/2/1 575/3/1 576/4/1
f 577/1/1 578/2/1 579/3/1 580/4/1
f 581/1/1 582/2/1 583/3/1 584/4/1
f 585/1/1 586/2/1 587/3/1 588/4/1
f 589/2/1 590/1/1 591/4/1 592/3/1
f 593/2/1 594/1/1 595/4/1 596/3/1
f 597/2/1 598/1/1 599/4/1 600/3/1
f 601/2/1 602/1/1 603/4/1 604/3/1
f 605/2/1 606/1/1 607/4/1 608/3/1
f 609/2/1 610/1/1 611/4/1 612/3/1
f 613/2/1 614/1/1 615/4/1 616/3/1
f 617/2/1 618/1/1 619/4/1 620/3/1
f 621/2/1 622/1/1 623/4/1 624/3/1
f 625/2/1 626/1/1 627/4/1 628/3/1
f 629/2/1 630/1/1 631/4/1 632/3/1
f 633/2/1 634/1/1 635/4/1 636/3/1
f 637/2/1 638/1/1 639/4/1 640/3/1
f 641/2/1 642/1/1 643/4/1 644/3/1
f 645/2/1 646/1/1 647/4/1 648/3/1
f 649/2/1 650/1/1 651/4/1 652/3/1
f 653/2/1 654/1/1 655/4/1 656/3/1
f 657/2/1 658/1/1 659/4/1 660/3/1
f 661/2/1 662/1/1 663/4/1 664/3/1
f 665/2/1 666/1/1 667/4/1 668/3/1
f 669/2/1 670/1/1 671/4/1 672/3/1

